PathFileType	4	(X/Y/Z)	C:\Users\°ÂÌØÂü\Desktop\20210112\bx_y_5_901-Unnamed.trc
DataRate	CameraRate	NumFrames	NumMarkers	Units	OrigDataRate	OrigDataStartFrame	OrigNumFrames
50.00	50.00	       7	0	mm	50.00	132	       527
Frame#	Time	
		

132	2.620				-798.82196	73.76238	567.46851	-842.22858	-72.11768	691.35040	-762.32220	11.88056	525.87128	-863.70001	284.08783	727.89362	-833.77509	276.79114	859.68256	-768.57477	-19.76927	800.04980	-797.99146	138.50673	567.10211	-915.52661	83.07579	1101.13049	-851.54834	247.70332	618.50397	-841.60205	-84.86172	844.69458				-726.71881	71.68996	222.72809	-834.67609	241.12025	563.64349	-770.80328	199.34210	535.30347	-855.14777	253.85576	485.34091				-663.27026	-67.48803	161.61714				-622.81702	-78.74229	157.52258	-775.07672	226.88506	202.95821	-883.06183	295.49008	144.22739	-676.35370	53.30029	163.49162	-561.76788	-37.84325	162.79904	-603.98828	20.26810	166.13710	-677.27130	175.58833	161.38393	-518.00897	-72.93409	143.23187	-595.66534	221.46245	172.49052	-664.64276	298.60745	160.21870	-627.24396	306.23264	161.76019	-561.88086	258.42331	164.06261	-528.07166	303.64517	146.19643	-96.36351	110.40941	1016.13043	-799.05896	176.81825	183.02963				-795.84119	51.28228	173.62906	-848.29633	-41.34398	471.29388	-772.64490	-11.57056	202.62947	-876.15698	-79.18539	141.27307							-823.90472	-31.48012	557.48706							-720.39539	156.23758	222.59264	
133	2.640	-773.10309	207.45607	805.66168	-799.51166	73.98785	567.34302	-843.54199	-71.84252	690.26599	-763.14001	12.18438	525.14392	-864.71259	284.16507	727.83801	-835.23584	276.87292	859.40460	-769.75873	-19.61748	799.56812	-799.49677	138.64247	567.06586	-917.33380	82.85377	1100.72241	-852.95996	247.66440	617.74060	-843.23102	-85.10427	844.26282				-726.99634	71.89406	222.03856	-835.51349	241.41579	563.13428	-771.59479	199.24953	535.03790	-856.05273	254.24562	485.70041				-663.30731	-67.43905	161.70203				-622.67200	-78.74469	157.52409	-775.27216	227.51306	203.11572	-882.63641	296.19785	144.62160	-676.51074	53.02043	163.35863	-561.74902	-37.86366	162.80373	-603.92780	20.33919	166.12833	-676.94781	175.52068	161.62952	-518.09662	-73.03468	143.26155	-595.78601	221.51822	172.47768	-664.73065	298.73871	160.20712	-627.08417	306.33099	161.88522	-561.82715	258.42523	163.96031	-528.08539	303.72116	146.27631	-98.12083	110.25834	1016.04388	-799.11615	176.86867	182.96797				-796.10547	51.49062	173.43889	-848.91260	-40.92176	470.92514	-772.48566	-11.43800	202.47639	-875.97748	-78.88188	141.21204							-824.80707	-31.74636	557.40784							-720.51813	156.35460	222.33409	
134	2.660				-800.78381	73.85324	567.05206	-844.54987	-71.88352	690.13702	-764.38007	12.27583	525.38129	-866.10748	284.41928	727.87030	-836.93811	276.74243	859.60883	-771.03088	-19.47769	799.03125	-800.11804	138.50063	566.63776	-919.08093	82.59491	1100.13965	-853.76770	247.93050	617.98938	-844.52869	-84.40141	843.73322				-727.11829	71.88901	221.88284	-836.12128	241.38107	563.00085	-772.58441	199.44890	535.09918	-856.88562	254.18846	485.47427				-663.43512	-67.35251	161.77141				-622.73737	-78.62528	157.50549	-775.27216	227.51306	203.11572	-882.70197	296.12567	144.55602	-676.35370	53.30029	163.49162	-561.79694	-37.95177	162.74210	-603.90997	20.35412	166.20764	-677.11530	175.76981	161.52524	-518.09662	-73.03468	143.26155	-595.73560	221.41164	172.48003	-664.73065	298.73871	160.20712	-627.21619	306.29187	161.76329	-561.98859	258.45071	163.99373	-528.24048	303.80902	146.31004	-100.03832	110.78168	1017.77972	-799.19897	177.15558	182.74797				-795.98114	51.45151	173.16417	-849.58655	-41.01105	470.46152	-772.52386	-11.35727	202.46605	-875.97748	-78.88188	141.21204							-825.81439	-31.24975	556.65253							-720.41107	156.38162	222.47108	
135	2.680	-775.90564	207.85562	805.82874	-802.23242	73.42276	566.23450	-845.96686	-71.59383	689.65826	-765.19165	11.99209	525.14771	-867.19073	284.52878	727.46442	-838.51532	277.18155	859.80902	-772.86591	-19.51446	799.24017	-800.94495	139.36232	566.59058	-921.44458	82.61891	1100.16345	-855.13342	248.06949	617.60876	-846.00330	-84.34987	843.31317				-727.36700	71.98813	222.25185	-837.79895	241.21948	562.57556	-773.37146	199.90163	535.46124	-857.81769	254.86589	485.19711				-663.51569	-67.32145	161.34857				-622.77838	-78.56409	157.52126	-775.23621	227.60693	203.23688	-882.66003	296.11053	144.51537	-676.35370	53.30029	163.49162	-561.82330	-37.85246	162.79167	-603.98828	20.26810	166.13710	-677.11530	175.76981	161.52524	-517.97076	-73.02645	143.12593	-595.86023	221.43167	172.28445	-664.75537	298.92361	160.27469	-627.11877	306.23651	161.77620	-561.91479	258.07538	164.46295	-528.34796	303.69089	146.17239	-102.04234	110.41090	1019.46759	-799.18848	177.10625	182.93727				-796.10852	51.47942	172.99263	-850.59546	-41.01609	470.06848	-772.48370	-11.48812	202.41800	-876.18384	-78.95393	141.52309							-827.00360	-31.17256	556.26868							-720.65509	156.34183	222.56871	
136	2.700	-777.94434	207.61317	805.58759	-803.30750	73.61305	566.39136	-847.13812	-71.52255	689.63885	-765.95245	12.30358	524.85785	-869.02496	284.93466	727.75452	-840.09155	277.33237	859.27924	-774.36560	-19.41265	799.14532				-923.61554	82.51222	1099.60535	-856.05072	248.34538	617.72961	-847.92938	-83.40202	843.39056				-727.36700	71.98813	222.25185	-838.56256	241.71637	562.90692	-774.00488	200.25015	535.66522	-858.14465	254.97174	484.81165				-663.53741	-67.44991	161.60686				-622.77838	-78.56409	157.52126	-775.27399	227.72130	203.31255	-882.59216	296.17233	144.59991	-676.45776	53.17942	163.40773	-561.94867	-37.80395	163.08904	-603.93060	20.42201	166.29448	-677.41327	175.84076	161.91301	-518.07379	-73.08493	143.18665	-596.21228	221.67659	172.22830	-664.49738	298.93747	160.32220	-627.16260	306.39801	161.73727	-562.00989	258.21802	164.37457	-528.42450	303.72403	146.22643	-104.18935	110.07058	1022.29303	-799.14642	177.24294	182.93217				-796.09772	51.28916	172.96434	-851.28320	-41.08190	469.90054	-772.67029	-11.49634	202.29817	-875.99457	-78.94872	141.12155							-828.18134	-31.69500	556.40875							-720.63849	156.32121	222.95442	
137	2.720				-804.03381	73.64481	566.53754	-848.45978	-71.40614	689.67877	-767.10590	12.24101	525.16364	-870.48877	284.63144	727.19653	-841.89313	277.47339	859.66077	-775.59515	-19.03657	799.06195				-925.52856	83.05977	1099.16162	-857.38251	249.14285	617.95209	-849.35529	-83.26433	843.27887				-727.49170	71.91187	222.12488	-839.41589	241.59213	562.17773	-775.30255	200.92769	535.82416	-859.52985	255.18459	484.93115				-663.57629	-67.58819	161.29720				-622.82501	-78.58409	157.56250	-775.39667	227.85287	203.49031	-882.45801	295.98141	144.52785	-676.73926	52.51714	163.23108	-562.09509	-37.63791	162.87897	-604.07416	20.26534	166.16637				-518.22717	-73.03976	143.04782	-595.86151	221.45296	172.34433	-664.57507	299.02924	160.23540	-627.16260	306.39801	161.73727	-561.88403	258.33423	164.03256	-528.30719	303.64490	146.29607	-106.30486	109.17030	1026.24963	-799.12775	177.40771	182.79741				-796.51532	51.17336	173.36668	-852.11340	-41.26120	469.81702	-772.76953	-11.60839	202.07405	-875.99298	-78.87768	141.19183							-828.97247	-31.32791	556.03558							-720.71051	156.71513	223.13837	
138	2.740	-781.29108	208.34065	805.79297	-804.97583	73.72624	566.73419	-849.47900	-70.87901	689.31775	-767.58252	11.89594	525.44318	-871.95874	285.59467	727.50665	-843.63141	277.79907	859.60358	-777.33032	-18.25996	798.52124				-927.55695	83.49466	1098.82117	-858.48053	249.23050	617.48145	-851.11963	-82.52154	842.84222				-727.49170	71.91187	222.12488	-840.93079	242.20750	562.72028	-776.53772	200.73778	535.23053	-860.48645	255.20424	484.68982				-663.60712	-67.83809	161.27550				-622.94568	-78.63992	157.59535	-775.39667	227.85287	203.49031	-882.53949	296.08374	144.57086	-676.61481	52.89955	163.27470	-562.25580	-37.69718	162.92349	-604.07416	20.26534	166.16637				-517.97076	-73.02645	143.12593	-595.85876	221.67567	172.57959	-664.54797	299.14786	159.98965	-627.20923	306.46262	161.64630	-562.00342	258.43732	164.17065	-528.24896	303.63379	146.32666	-108.90929	108.26278	1029.40356	-799.25165	177.60800	182.87547				-796.38678	51.29306	173.28654	-853.36481	-40.98459	469.54568	-772.61444	-11.53043	202.05083	-876.17078	-79.19069	141.24234							-830.16742	-31.36774	556.24976							-720.84235	156.91032	223.46640	
